# Blender v2.92.0 OBJ File: ''
# www.blender.org
mtllib wall.mtl
o Cube
v -2.776852 10.000000 2.192134
v -2.776852 -10.000000 2.192134
v 10.000000 10.000000 10.000000
v 10.000000 -10.000000 10.000000
v -10.000000 10.000000 -10.000000
v -10.000000 -10.000000 -10.000000
v -10.000000 10.000000 10.000000
v -10.000000 -10.000000 10.000000
v -4.147260 0.000000 3.459428
v -10.000000 0.000000 10.000000
v 10.000000 0.000000 10.000000
v -10.000000 0.000000 -10.000000
v -6.531620 -10.000000 -3.389946
v 0.000000 10.000000 10.000000
v 0.000000 -10.000000 10.000000
v -6.531620 10.000000 -3.389946
v -7.831768 0.000000 -2.186399
v 0.000000 0.000000 10.000000
v -10.000000 -10.000000 0.000000
v 2.451056 10.000000 6.269190
v -10.000000 10.000000 0.000000
v 2.451056 -10.000000 6.269190
v 1.150908 0.000000 7.472737
v -10.000000 0.000000 0.000000
v -3.462056 -5.000000 2.825781
v 10.000000 -5.000000 10.000000
v -10.000000 -5.000000 -10.000000
v -10.000000 -5.000000 10.000000
v 0.000000 -5.000000 10.000000
v -7.181694 -5.000000 -2.788173
v -10.000000 -5.000000 0.000000
v 1.800982 -5.000000 6.870964
v -10.000000 5.000000 10.000000
v -3.835078 5.000000 1.937246
v 10.000000 5.000000 10.000000
v -10.000000 5.000000 -10.000000
v -7.855732 5.000000 -2.527799
v 0.000000 5.000000 10.000000
v 1.800982 5.000000 6.283331
v -10.000000 5.000000 0.000000
v -10.000000 10.000000 -5.000000
v -4.654236 10.000000 -0.598906
v -5.989514 0.000000 0.636514
v -10.000000 0.000000 -5.000000
v -4.654236 -10.000000 -0.598906
v -10.000000 -10.000000 -5.000000
v -10.000000 -5.000000 -5.000000
v -4.778600 -5.000000 -0.022424
v -5.321875 5.000000 0.018804
v -10.000000 5.000000 -5.000000
v 5.000000 -10.000000 10.000000
v -0.162898 -10.000000 4.230662
v 5.000000 10.000000 10.000000
v 5.000000 0.000000 10.000000
v -0.162898 10.000000 4.230662
v -1.498176 0.000000 5.466082
v -1.313788 -5.000000 5.678425
v 5.000000 -5.000000 10.000000
v -0.520625 5.000000 3.698709
v 5.000000 5.000000 10.000000
v -10.000000 -10.000000 5.000000
v 6.225528 10.000000 8.134595
v 5.575454 0.000000 8.736368
v -10.000000 10.000000 5.000000
v 6.225528 -10.000000 8.134595
v -10.000000 0.000000 5.000000
v -1.388426 -10.000000 6.096067
v -1.388426 10.000000 6.096067
v -10.000000 -5.000000 5.000000
v 6.443765 -5.000000 8.394254
v -10.000000 5.000000 5.000000
v 6.210402 5.000000 7.285819
v 2.418551 10.000000 7.115331
v 2.418551 -10.000000 7.115331
v -8.265810 -10.000000 -6.694973
v -5.000000 10.000000 10.000000
v -5.000000 0.000000 10.000000
v -5.000000 -10.000000 10.000000
v -8.265810 10.000000 -6.694973
v -8.915884 0.000000 -6.093200
v -6.388426 -10.000000 1.096067
v -6.388426 10.000000 1.096067
v -9.074099 -5.000000 -5.564034
v -5.000000 -5.000000 10.000000
v -8.105922 5.000000 -6.902777
v -5.000000 5.000000 10.000000
v -7.327118 10.000000 -2.799453
v -7.327118 -10.000000 -2.799453
v -5.694213 -10.000000 5.548034
v -5.694213 10.000000 5.548034
vt 0.812500 0.687500
vt 0.875000 0.687500
vt 0.875000 0.750000
vt 0.812500 0.750000
vt 0.562500 0.937500
vt 0.625000 0.937500
vt 0.625000 1.000000
vt 0.562500 1.000000
vt 0.562500 0.187500
vt 0.625000 0.187500
vt 0.625000 0.250000
vt 0.562500 0.250000
vt 0.312500 0.687500
vt 0.375000 0.687500
vt 0.375000 0.750000
vt 0.312500 0.750000
vt 0.562500 0.687500
vt 0.625000 0.687500
vt 0.625000 0.750000
vt 0.562500 0.750000
vt 0.562500 0.437500
vt 0.625000 0.437500
vt 0.625000 0.500000
vt 0.562500 0.500000
vt 0.437500 0.437500
vt 0.500000 0.437500
vt 0.500000 0.500000
vt 0.437500 0.500000
vt 0.437500 0.687500
vt 0.500000 0.687500
vt 0.500000 0.750000
vt 0.437500 0.750000
vt 0.437500 0.187500
vt 0.500000 0.187500
vt 0.500000 0.250000
vt 0.437500 0.250000
vt 0.437500 0.937500
vt 0.500000 0.937500
vt 0.500000 1.000000
vt 0.437500 1.000000
vt 0.437500 0.812500
vt 0.500000 0.812500
vt 0.500000 0.875000
vt 0.437500 0.875000
vt 0.437500 0.312500
vt 0.500000 0.312500
vt 0.500000 0.375000
vt 0.437500 0.375000
vt 0.562500 0.312500
vt 0.625000 0.312500
vt 0.625000 0.375000
vt 0.562500 0.375000
vt 0.187500 0.687500
vt 0.250000 0.687500
vt 0.250000 0.750000
vt 0.187500 0.750000
vt 0.562500 0.812500
vt 0.625000 0.812500
vt 0.625000 0.875000
vt 0.562500 0.875000
vt 0.687500 0.687500
vt 0.750000 0.687500
vt 0.750000 0.750000
vt 0.687500 0.750000
vt 0.187500 0.562500
vt 0.250000 0.562500
vt 0.250000 0.625000
vt 0.187500 0.625000
vt 0.437500 0.062500
vt 0.500000 0.062500
vt 0.500000 0.125000
vt 0.437500 0.125000
vt 0.437500 0.562500
vt 0.500000 0.562500
vt 0.500000 0.625000
vt 0.437500 0.625000
vt 0.562500 0.562500
vt 0.625000 0.562500
vt 0.625000 0.625000
vt 0.562500 0.625000
vt 0.562500 0.062500
vt 0.625000 0.062500
vt 0.625000 0.125000
vt 0.562500 0.125000
vt 0.812500 0.562500
vt 0.875000 0.562500
vt 0.875000 0.625000
vt 0.812500 0.625000
vt 0.375000 0.562500
vt 0.375000 0.625000
vt 0.375000 0.062500
vt 0.375000 0.125000
vt 0.375000 0.312500
vt 0.375000 0.375000
vt 0.375000 0.812500
vt 0.375000 0.875000
vt 0.375000 0.937500
vt 0.375000 1.000000
vt 0.375000 0.187500
vt 0.375000 0.250000
vt 0.375000 0.437500
vt 0.375000 0.500000
vt 0.812500 0.500000
vt 0.875000 0.500000
vt 0.187500 0.500000
vt 0.250000 0.500000
vt 0.312500 0.625000
vt 0.687500 0.625000
vt 0.500000 0.000000
vt 0.562500 0.000000
vt 0.375000 0.000000
vt 0.437500 0.000000
vt 0.625000 0.000000
vt 0.750000 0.625000
vt 0.125000 0.625000
vt 0.125000 0.687500
vt 0.125000 0.500000
vt 0.125000 0.562500
vt 0.750000 0.500000
vt 0.750000 0.562500
vt 0.125000 0.750000
vn 0.0000 1.0000 0.0000
vn 0.0000 0.0000 1.0000
vn -1.0000 0.0000 0.0000
vn 0.0000 -1.0000 0.0000
vn 0.5166 0.0716 -0.8532
vn 0.8033 -0.1595 -0.5738
vn 0.8517 0.2228 -0.4744
vn 0.3377 0.0615 -0.9392
vn 0.9124 0.0478 -0.4064
vn 0.9602 -0.1280 -0.2481
vn 0.4840 0.0743 -0.8719
vn 0.6833 -0.0311 -0.7295
vn 0.4746 0.2580 -0.8415
vn 0.8398 0.2093 -0.5009
vn 0.4279 0.0141 -0.9037
vn 0.8629 0.1290 -0.4887
vn 0.6448 -0.3114 -0.6981
vn 0.9828 -0.0955 -0.1583
vn 0.8020 -0.1991 -0.5631
vn 0.4305 -0.1563 -0.8890
vn 0.7705 -0.1098 -0.6279
vn 0.7853 0.1321 -0.6049
vn 0.7770 0.2190 -0.5902
vn 0.7482 -0.2405 -0.6183
vn 0.5046 -0.3278 -0.7987
vn 0.6905 0.2667 -0.6723
vn 0.5396 -0.0102 -0.8419
vn 0.7087 0.0911 -0.6996
vn 0.2388 -0.2764 -0.9309
vn 0.3717 0.0956 -0.9234
vn 0.2912 0.1336 -0.9473
vn 0.3302 0.0567 -0.9422
vn 0.9151 -0.1056 -0.3891
vn 0.9397 0.1125 -0.3229
vn 0.8697 0.0241 -0.4929
vn 0.9718 -0.0278 -0.2341
usemtl Material
s off
f 90/1/1 64/2/1 7/3/1 76/4/1
f 86/5/2 76/6/2 7/7/2 33/8/2
f 50/9/3 41/10/3 5/11/3 36/12/3
f 74/13/4 65/14/4 4/15/4 51/16/4
f 72/17/5 62/18/5 3/19/5 35/20/5
f 49/21/6 42/22/6 1/23/6 34/24/6
f 48/25/7 43/26/7 9/27/7 25/28/7
f 70/29/8 63/30/8 11/31/8 26/32/8
f 47/33/3 44/34/3 12/35/3 27/36/3
f 84/37/2 77/38/2 10/39/2 28/40/2
f 58/41/2 54/42/2 18/43/2 29/44/2
f 83/45/9 80/46/9 17/47/9 30/48/9
f 85/49/10 79/50/10 16/51/10 37/52/10
f 89/53/4 67/54/4 15/55/4 78/56/4
f 60/57/2 53/58/2 14/59/2 38/60/2
f 73/61/1 68/62/1 14/63/1 53/64/1
f 88/65/4 45/66/4 2/67/4 81/68/4
f 69/69/3 66/70/3 24/71/3 31/72/3
f 57/73/11 56/74/11 23/75/11 32/76/11
f 59/77/12 55/78/12 20/79/12 39/80/12
f 71/81/3 64/82/3 21/83/3 40/84/3
f 87/85/1 41/86/1 21/87/1 82/88/1
f 52/89/13 57/73/13 32/76/13 22/90/13
f 61/91/3 69/69/3 31/72/3 19/92/3
f 75/93/14 83/45/14 30/48/14 13/94/14
f 51/95/2 58/41/2 29/44/2 15/96/2
f 78/97/2 84/37/2 28/40/2 8/98/2
f 46/99/3 47/33/3 27/36/3 6/100/3
f 65/14/15 70/29/15 26/32/15 4/15/15
f 45/101/16 48/25/16 25/28/16 2/102/16
f 66/70/3 71/81/3 40/84/3 24/71/3
f 56/74/17 59/77/17 39/80/17 23/75/17
f 54/42/2 60/57/2 38/60/2 18/43/2
f 80/46/18 85/49/18 37/52/18 17/47/18
f 43/26/19 49/21/19 34/24/19 9/27/19
f 63/30/20 72/17/20 35/20/20 11/31/20
f 44/34/3 50/9/3 36/12/3 12/35/3
f 77/38/2 86/5/2 33/8/2 10/39/2
f 24/71/3 40/84/3 50/9/3 44/34/3
f 17/47/21 37/52/21 49/21/21 43/26/21
f 13/94/22 30/48/22 48/25/22 45/101/22
f 19/92/3 31/72/3 47/33/3 46/99/3
f 79/103/1 5/104/1 41/86/1 87/85/1
f 75/105/4 13/106/4 45/66/4 88/65/4
f 31/72/3 24/71/3 44/34/3 47/33/3
f 30/48/23 17/47/23 43/26/23 48/25/23
f 37/52/24 16/51/24 42/22/24 49/21/24
f 40/84/3 21/83/3 41/10/3 50/9/3
f 11/31/2 35/20/2 60/57/2 54/42/2
f 9/27/25 34/24/25 59/77/25 56/74/25
f 4/15/2 26/32/2 58/41/2 51/95/2
f 2/102/26 25/28/26 57/73/26 52/89/26
f 34/24/27 1/23/27 55/78/27 59/77/27
f 25/28/28 9/27/28 56/74/28 57/73/28
f 62/18/1 73/61/1 53/64/1 3/19/1
f 35/20/2 3/19/2 53/58/2 60/57/2
f 26/32/2 11/31/2 54/42/2 58/41/2
f 67/54/4 74/13/4 51/16/4 15/55/4
f 2/67/4 52/107/4 74/13/4 67/54/4
f 20/79/1 55/108/1 73/61/1 62/18/1
f 23/75/29 39/80/29 72/17/29 63/30/29
f 10/109/3 33/110/3 71/81/3 66/70/3
f 22/90/30 32/76/30 70/29/30 65/14/30
f 8/111/3 28/112/3 69/69/3 61/91/3
f 33/110/3 7/113/3 64/82/3 71/81/3
f 28/112/3 10/109/3 66/70/3 69/69/3
f 55/108/1 1/114/1 68/62/1 73/61/1
f 81/68/4 2/67/4 67/54/4 89/53/4
f 32/76/31 23/75/31 63/30/31 70/29/31
f 39/80/32 20/79/32 62/18/32 72/17/32
f 52/107/4 22/90/4 65/14/4 74/13/4
f 82/88/1 21/87/1 64/2/1 90/1/1
f 1/114/1 82/88/1 90/1/1 68/62/1
f 19/115/4 81/68/4 89/53/4 61/116/4
f 6/117/4 75/105/4 88/65/4 46/118/4
f 16/119/1 79/103/1 87/85/1 42/120/1
f 18/43/2 38/60/2 86/5/2 77/38/2
f 12/35/33 36/12/33 85/49/33 80/46/33
f 15/96/2 29/44/2 84/37/2 78/97/2
f 6/100/34 27/36/34 83/45/34 75/93/34
f 42/120/1 87/85/1 82/88/1 1/114/1
f 46/118/4 88/65/4 81/68/4 19/115/4
f 61/116/4 89/53/4 78/56/4 8/121/4
f 36/12/35 5/11/35 79/50/35 85/49/35
f 27/36/36 12/35/36 80/46/36 83/45/36
f 29/44/2 18/43/2 77/38/2 84/37/2
f 38/60/2 14/59/2 76/6/2 86/5/2
f 68/62/1 90/1/1 76/4/1 14/63/1
