# Blender v2.92.0 OBJ File: 'wall.blend'
# www.blender.org
mtllib wall.mtl
o Cube
v -2.776852 10.000000 2.192134
v -2.776852 -10.000000 2.192134
v 10.000000 10.000000 10.000000
v 10.000000 -10.000000 10.000000
v -10.000000 10.000000 -10.000000
v -10.000000 -10.000000 -10.000000
v -10.000000 10.000000 10.000000
v -10.000000 -10.000000 10.000000
v -4.147260 0.000000 3.459428
v -10.000000 0.000000 10.000000
v 10.000000 0.000000 10.000000
v -10.000000 0.000000 -10.000000
v -6.531620 -10.000000 -3.389946
v 0.000000 10.000000 10.000000
v 0.000000 -10.000000 10.000000
v -6.531620 10.000000 -3.389946
v -7.831768 0.000000 -2.186399
v 0.000000 0.000000 10.000000
v -10.000000 -10.000000 0.000000
v 2.451056 10.000000 6.269190
v -10.000000 10.000000 0.000000
v 2.451056 -10.000000 6.269190
v 1.150908 0.000000 7.472737
v -10.000000 0.000000 0.000000
v -3.462056 -5.000000 2.825781
v 10.000000 -5.000000 10.000000
v -10.000000 -5.000000 -10.000000
v -10.000000 -5.000000 10.000000
v 0.000000 -5.000000 10.000000
v -7.181694 -5.000000 -2.788173
v -10.000000 -5.000000 0.000000
v 1.800982 -5.000000 6.870964
v -10.000000 5.000000 10.000000
v -3.835078 5.000000 1.937246
v 10.000000 5.000000 10.000000
v -10.000000 5.000000 -10.000000
v -7.855732 5.000000 -2.527799
v 0.000000 5.000000 10.000000
v 1.800982 5.000000 6.283331
v -10.000000 5.000000 0.000000
v -10.000000 10.000000 -5.000000
v -4.654236 10.000000 -0.598906
v -5.989514 0.000000 0.636514
v -10.000000 0.000000 -5.000000
v -4.654236 -10.000000 -0.598906
v -10.000000 -10.000000 -5.000000
v -10.000000 -5.000000 -5.000000
v -5.559688 -5.000000 0.870741
v -5.321875 5.000000 0.018804
v -10.000000 5.000000 -5.000000
v 5.000000 -10.000000 10.000000
v -0.162898 -10.000000 4.230662
v 5.000000 10.000000 10.000000
v 5.000000 0.000000 10.000000
v -0.162898 10.000000 4.230662
v -1.498176 0.000000 5.466082
v -1.313788 -5.000000 5.678425
v 5.000000 -5.000000 10.000000
v -0.520625 5.000000 3.698709
v 5.000000 5.000000 10.000000
v -10.000000 -10.000000 5.000000
v 6.225528 10.000000 8.134595
v 5.575454 0.000000 8.736368
v -10.000000 10.000000 5.000000
v 6.225528 -10.000000 8.134595
v -10.000000 0.000000 5.000000
v -1.388426 -10.000000 6.096067
v -1.388426 10.000000 6.096067
v -10.000000 -5.000000 5.000000
v 6.443765 -5.000000 8.394254
v -10.000000 5.000000 5.000000
v 6.210402 5.000000 7.285819
v 2.418551 10.000000 7.115331
v 2.418551 -10.000000 7.115331
v -8.265810 -10.000000 -6.694973
v -5.000000 10.000000 10.000000
v -5.000000 0.000000 10.000000
v -5.000000 -10.000000 10.000000
v -8.265810 10.000000 -6.694973
v -8.915884 0.000000 -6.093200
v -6.388426 -10.000000 1.096067
v -6.388426 10.000000 1.096067
v -9.074099 -5.000000 -5.564034
v -5.000000 -5.000000 10.000000
v -7.379363 5.000000 -6.542763
v -5.000000 5.000000 10.000000
v -7.327118 10.000000 -2.799453
v -7.327118 -10.000000 -2.799453
v -5.694213 -10.000000 5.548034
v -5.694213 10.000000 5.548034
v -3.119454 -7.500000 2.508957
v 10.000000 -7.500000 10.000000
v -10.000000 -7.500000 -10.000000
v 0.000000 -7.500000 10.000000
v -6.856657 -7.500000 -3.089060
v -10.000000 -7.500000 0.000000
v 3.572608 -7.500000 6.216469
v -10.000000 -7.500000 10.000000
v -3.269829 -7.500000 -0.664272
v -10.000000 -7.500000 -5.000000
v 5.000000 -7.500000 10.000000
v -0.738343 -7.500000 4.954543
v 6.334647 -7.500000 8.264425
v -10.000000 -7.500000 5.000000
v -5.000000 -7.500000 10.000000
v -7.223365 -7.500000 -6.483111
v -10.000000 -2.500000 10.000000
v -3.804658 -2.500000 3.142604
v 10.000000 -2.500000 10.000000
v -10.000000 -2.500000 -10.000000
v 0.000000 -2.500000 10.000000
v -7.506731 -2.500000 -2.487286
v -10.000000 -2.500000 0.000000
v 1.475945 -2.500000 7.171850
v -10.000000 -2.500000 -5.000000
v -5.295334 -2.500000 0.311738
v -1.836312 -2.500000 6.675314
v 5.000000 -2.500000 10.000000
v -10.000000 -2.500000 5.000000
v 5.950517 -2.500000 9.240061
v -8.653097 -2.500000 -6.343984
v -5.000000 -2.500000 10.000000
v -3.991169 2.500000 2.698337
v 10.000000 2.500000 10.000000
v -10.000000 2.500000 -10.000000
v -7.843750 2.500000 -2.357099
v 0.000000 2.500000 10.000000
v 1.475945 2.500000 6.878034
v -10.000000 2.500000 0.000000
v -10.000000 2.500000 10.000000
v -10.000000 2.500000 -5.000000
v -5.076772 2.500000 -0.557496
v 5.000000 2.500000 10.000000
v -1.208923 2.500000 5.228896
v 5.770544 2.500000 9.116272
v -10.000000 2.500000 5.000000
v -5.000000 2.500000 10.000000
v -8.633287 2.500000 -5.392810
v -10.000000 7.500000 10.000000
v -3.305965 7.500000 2.064690
v 10.000000 7.500000 10.000000
v -10.000000 7.500000 -10.000000
v -7.193676 7.500000 -2.958873
v 0.000000 7.500000 10.000000
v 2.126019 7.500000 6.276260
v -10.000000 7.500000 0.000000
v -5.559975 7.500000 0.034598
v -10.000000 7.500000 -5.000000
v 0.093073 7.500000 3.396852
v 5.000000 7.500000 10.000000
v -10.000000 7.500000 5.000000
v 6.217965 7.500000 8.736652
v -8.185865 7.500000 -6.798875
v -5.000000 7.500000 10.000000
vt 0.812500 0.687500
vt 0.875000 0.687500
vt 0.875000 0.750000
vt 0.812500 0.750000
vt 0.593750 0.937500
vt 0.625000 0.937500
vt 0.625000 1.000000
vt 0.593750 1.000000
vt 0.593750 0.187500
vt 0.625000 0.187500
vt 0.625000 0.250000
vt 0.593750 0.250000
vt 0.312500 0.687500
vt 0.375000 0.687500
vt 0.375000 0.750000
vt 0.312500 0.750000
vt 0.593750 0.687500
vt 0.625000 0.687500
vt 0.625000 0.750000
vt 0.593750 0.750000
vt 0.593750 0.437500
vt 0.625000 0.437500
vt 0.625000 0.500000
vt 0.593750 0.500000
vt 0.468750 0.437500
vt 0.500000 0.437500
vt 0.500000 0.500000
vt 0.468750 0.500000
vt 0.468750 0.687500
vt 0.500000 0.687500
vt 0.500000 0.750000
vt 0.468750 0.750000
vt 0.468750 0.187500
vt 0.500000 0.187500
vt 0.500000 0.250000
vt 0.468750 0.250000
vt 0.468750 0.937500
vt 0.500000 0.937500
vt 0.500000 1.000000
vt 0.468750 1.000000
vt 0.468750 0.812500
vt 0.500000 0.812500
vt 0.500000 0.875000
vt 0.468750 0.875000
vt 0.468750 0.312500
vt 0.500000 0.312500
vt 0.500000 0.375000
vt 0.468750 0.375000
vt 0.593750 0.312500
vt 0.625000 0.312500
vt 0.625000 0.375000
vt 0.593750 0.375000
vt 0.187500 0.687500
vt 0.250000 0.687500
vt 0.250000 0.750000
vt 0.187500 0.750000
vt 0.593750 0.812500
vt 0.625000 0.812500
vt 0.625000 0.875000
vt 0.593750 0.875000
vt 0.687500 0.687500
vt 0.750000 0.687500
vt 0.750000 0.750000
vt 0.687500 0.750000
vt 0.187500 0.562500
vt 0.250000 0.562500
vt 0.250000 0.625000
vt 0.187500 0.625000
vt 0.468750 0.062500
vt 0.500000 0.062500
vt 0.500000 0.125000
vt 0.468750 0.125000
vt 0.468750 0.562500
vt 0.500000 0.562500
vt 0.500000 0.625000
vt 0.468750 0.625000
vt 0.593750 0.562500
vt 0.625000 0.562500
vt 0.625000 0.625000
vt 0.593750 0.625000
vt 0.593750 0.062500
vt 0.625000 0.062500
vt 0.625000 0.125000
vt 0.593750 0.125000
vt 0.812500 0.562500
vt 0.875000 0.562500
vt 0.875000 0.625000
vt 0.812500 0.625000
vt 0.406250 0.562500
vt 0.437500 0.562500
vt 0.437500 0.625000
vt 0.406250 0.625000
vt 0.406250 0.062500
vt 0.437500 0.062500
vt 0.437500 0.125000
vt 0.406250 0.125000
vt 0.406250 0.312500
vt 0.437500 0.312500
vt 0.437500 0.375000
vt 0.406250 0.375000
vt 0.406250 0.812500
vt 0.437500 0.812500
vt 0.437500 0.875000
vt 0.406250 0.875000
vt 0.406250 0.937500
vt 0.437500 0.937500
vt 0.437500 1.000000
vt 0.406250 1.000000
vt 0.406250 0.187500
vt 0.437500 0.187500
vt 0.437500 0.250000
vt 0.406250 0.250000
vt 0.406250 0.687500
vt 0.437500 0.687500
vt 0.437500 0.750000
vt 0.406250 0.750000
vt 0.406250 0.437500
vt 0.437500 0.437500
vt 0.437500 0.500000
vt 0.406250 0.500000
vt 0.531250 0.062500
vt 0.562500 0.062500
vt 0.562500 0.125000
vt 0.531250 0.125000
vt 0.531250 0.562500
vt 0.562500 0.562500
vt 0.562500 0.625000
vt 0.531250 0.625000
vt 0.531250 0.812500
vt 0.562500 0.812500
vt 0.562500 0.875000
vt 0.531250 0.875000
vt 0.531250 0.312500
vt 0.562500 0.312500
vt 0.562500 0.375000
vt 0.531250 0.375000
vt 0.531250 0.437500
vt 0.562500 0.437500
vt 0.562500 0.500000
vt 0.531250 0.500000
vt 0.531250 0.687500
vt 0.562500 0.687500
vt 0.562500 0.750000
vt 0.531250 0.750000
vt 0.531250 0.187500
vt 0.562500 0.187500
vt 0.562500 0.250000
vt 0.531250 0.250000
vt 0.531250 0.937500
vt 0.562500 0.937500
vt 0.562500 1.000000
vt 0.531250 1.000000
vt 0.812500 0.500000
vt 0.875000 0.500000
vt 0.187500 0.500000
vt 0.250000 0.500000
vt 0.312500 0.625000
vt 0.687500 0.625000
vt 0.531250 0.000000
vt 0.562500 0.000000
vt 0.406250 0.000000
vt 0.437500 0.000000
vt 0.593750 0.000000
vt 0.625000 0.000000
vt 0.468750 0.000000
vt 0.500000 0.000000
vt 0.750000 0.625000
vt 0.375000 0.625000
vt 0.125000 0.625000
vt 0.125000 0.687500
vt 0.125000 0.500000
vt 0.125000 0.562500
vt 0.750000 0.500000
vt 0.750000 0.562500
vt 0.125000 0.750000
vt 0.375000 0.250000
vt 0.375000 0.312500
vt 0.375000 0.875000
vt 0.375000 0.937500
vt 0.375000 0.000000
vt 0.375000 0.062500
vt 0.375000 0.500000
vt 0.375000 0.562500
vt 0.375000 0.812500
vt 0.375000 0.125000
vt 0.375000 0.187500
vt 0.375000 0.375000
vt 0.375000 0.437500
vt 0.375000 1.000000
vn 0.0000 1.0000 0.0000
vn 0.0000 0.0000 1.0000
vn -1.0000 0.0000 0.0000
vn 0.0000 -1.0000 0.0000
vn 0.3802 -0.1111 -0.9182
vn 0.7305 -0.2730 -0.6260
vn 0.8369 0.2369 -0.4934
vn 0.2315 -0.0803 -0.9695
vn 0.9514 0.1420 -0.2733
vn 0.9262 -0.1310 -0.3534
vn 0.3818 -0.1662 -0.9092
vn 0.7230 0.1030 -0.6831
vn 0.2905 0.3786 -0.8788
vn 0.8424 0.4418 -0.3084
vn 0.4199 0.0144 -0.9075
vn 0.7746 0.5336 -0.3395
vn 0.5877 -0.4144 -0.6949
vn 0.9669 -0.2515 -0.0429
vn 0.8954 -0.0005 -0.4452
vn 0.3839 -0.3470 -0.8557
vn 0.6312 0.0949 -0.7698
vn 0.6409 0.5367 -0.5488
vn 0.7890 0.2320 -0.5689
vn 0.7995 -0.3540 -0.4853
vn 0.5206 -0.4268 -0.7395
vn 0.7329 0.2650 -0.6266
vn 0.4842 0.1396 -0.8638
vn 0.7632 -0.1129 -0.6362
vn 0.3111 -0.4529 -0.8355
vn 0.4177 0.2747 -0.8661
vn 0.3506 0.0111 -0.9365
vn 0.4773 -0.1375 -0.8679
vn 0.8521 -0.3106 -0.4213
vn 0.8379 0.3818 -0.3901
vn 0.8777 0.0240 -0.4787
vn 0.9500 0.0652 -0.3054
vn 0.8248 -0.1489 -0.5454
vn 0.5104 -0.1125 -0.8525
vn 0.6437 0.2674 -0.7170
vn 0.6862 -0.1115 -0.7188
vn 0.9316 -0.1782 -0.3167
vn 0.4356 0.0139 -0.9000
vn 0.9488 -0.1056 -0.2976
vn 0.4291 0.0740 -0.9002
vn 0.9555 -0.1223 -0.2684
vn 0.3535 0.2637 -0.8975
vn 0.8077 0.2766 -0.5207
vn 0.8598 -0.0159 -0.5104
vn 0.2438 0.2822 -0.9279
vn 0.9076 -0.0573 -0.4158
vn 0.2917 0.1874 -0.9380
vn 0.8000 -0.0165 -0.5998
vn 0.9609 -0.0156 -0.2766
vn 0.3715 -0.0784 -0.9251
vn 0.6274 -0.2058 -0.7510
vn 0.6744 -0.3050 -0.6724
vn 0.2403 0.0642 -0.9686
vn 0.8471 -0.3406 -0.4080
vn 0.9652 -0.0246 -0.2605
vn 0.5536 -0.2024 -0.8078
vn 0.8277 0.1053 -0.5513
vn 0.3666 0.2355 -0.9001
vn 0.4152 -0.1263 -0.9009
vn 0.7937 -0.1169 -0.5970
vn 0.7689 -0.1822 -0.6128
vn 0.9977 0.0198 -0.0655
vn 0.7258 -0.0225 -0.6876
vn 0.4505 0.2482 -0.8576
usemtl Material
s off
f 90/1/1 64/2/1 7/3/1 76/4/1
f 154/5/2 76/6/2 7/7/2 139/8/2
f 148/9/3 41/10/3 5/11/3 142/12/3
f 74/13/4 65/14/4 4/15/4 51/16/4
f 152/17/5 62/18/5 3/19/5 141/20/5
f 147/21/6 42/22/6 1/23/6 140/24/6
f 116/25/7 43/26/7 9/27/7 108/28/7
f 120/29/8 63/30/8 11/31/8 109/32/8
f 115/33/3 44/34/3 12/35/3 110/36/3
f 122/37/2 77/38/2 10/39/2 107/40/2
f 118/41/2 54/42/2 18/43/2 111/44/2
f 121/45/9 80/46/9 17/47/9 112/48/9
f 153/49/10 79/50/10 16/51/10 143/52/10
f 89/53/4 67/54/4 15/55/4 78/56/4
f 150/57/2 53/58/2 14/59/2 144/60/2
f 73/61/1 68/62/1 14/63/1 53/64/1
f 88/65/4 45/66/4 2/67/4 81/68/4
f 119/69/3 66/70/3 24/71/3 113/72/3
f 117/73/11 56/74/11 23/75/11 114/76/11
f 149/77/12 55/78/12 20/79/12 145/80/12
f 151/81/3 64/82/3 21/83/3 146/84/3
f 87/85/1 41/86/1 21/87/1 82/88/1
f 102/89/13 57/90/13 32/91/13 97/92/13
f 104/93/3 69/94/3 31/95/3 96/96/3
f 106/97/14 83/98/14 30/99/14 95/100/14
f 101/101/2 58/102/2 29/103/2 94/104/2
f 105/105/2 84/106/2 28/107/2 98/108/2
f 100/109/3 47/110/3 27/111/3 93/112/3
f 103/113/15 70/114/15 26/115/15 92/116/15
f 99/117/16 48/118/16 25/119/16 91/120/16
f 136/121/3 71/122/3 40/123/3 129/124/3
f 134/125/17 59/126/17 39/127/17 128/128/17
f 133/129/2 60/130/2 38/131/2 127/132/2
f 138/133/18 85/134/18 37/135/18 126/136/18
f 132/137/19 49/138/19 34/139/19 123/140/19
f 135/141/20 72/142/20 35/143/20 124/144/20
f 131/145/3 50/146/3 36/147/3 125/148/3
f 137/149/2 86/150/2 33/151/2 130/152/2
f 129/124/3 40/123/3 50/146/3 131/145/3
f 126/136/21 37/135/21 49/138/21 132/137/21
f 95/100/22 30/99/22 48/118/22 99/117/22
f 96/96/3 31/95/3 47/110/3 100/109/3
f 79/153/1 5/154/1 41/86/1 87/85/1
f 75/155/4 13/156/4 45/66/4 88/65/4
f 113/72/3 24/71/3 44/34/3 115/33/3
f 112/48/23 17/47/23 43/26/23 116/25/23
f 143/52/24 16/51/24 42/22/24 147/21/24
f 146/84/3 21/83/3 41/10/3 148/9/3
f 124/144/2 35/143/2 60/130/2 133/129/2
f 123/140/25 34/139/25 59/126/25 134/125/25
f 92/116/2 26/115/2 58/102/2 101/101/2
f 91/120/26 25/119/26 57/90/26 102/89/26
f 140/24/27 1/23/27 55/78/27 149/77/27
f 108/28/28 9/27/28 56/74/28 117/73/28
f 62/18/1 73/61/1 53/64/1 3/19/1
f 141/20/2 3/19/2 53/58/2 150/57/2
f 109/32/2 11/31/2 54/42/2 118/41/2
f 67/54/4 74/13/4 51/16/4 15/55/4
f 2/67/4 52/157/4 74/13/4 67/54/4
f 20/79/1 55/158/1 73/61/1 62/18/1
f 128/128/29 39/127/29 72/142/29 135/141/29
f 130/159/3 33/160/3 71/122/3 136/121/3
f 97/92/30 32/91/30 70/114/30 103/113/30
f 98/161/3 28/162/3 69/94/3 104/93/3
f 139/163/3 7/164/3 64/82/3 151/81/3
f 107/165/3 10/166/3 66/70/3 119/69/3
f 55/158/1 1/167/1 68/62/1 73/61/1
f 81/68/4 2/67/4 67/54/4 89/53/4
f 114/76/31 23/75/31 63/30/31 120/29/31
f 145/80/32 20/79/32 62/18/32 152/17/32
f 52/157/4 22/168/4 65/14/4 74/13/4
f 82/88/1 21/87/1 64/2/1 90/1/1
f 1/167/1 82/88/1 90/1/1 68/62/1
f 19/169/4 81/68/4 89/53/4 61/170/4
f 6/171/4 75/155/4 88/65/4 46/172/4
f 16/173/1 79/153/1 87/85/1 42/174/1
f 127/132/2 38/131/2 86/150/2 137/149/2
f 125/148/33 36/147/33 85/134/33 138/133/33
f 94/104/2 29/103/2 84/106/2 105/105/2
f 93/112/34 27/111/34 83/98/34 106/97/34
f 42/174/1 87/85/1 82/88/1 1/167/1
f 46/172/4 88/65/4 81/68/4 19/169/4
f 61/170/4 89/53/4 78/56/4 8/175/4
f 142/12/35 5/11/35 79/50/35 153/49/35
f 110/36/36 12/35/36 80/46/36 121/45/36
f 111/44/2 18/43/2 77/38/2 122/37/2
f 144/60/2 14/59/2 76/6/2 154/5/2
f 68/62/1 90/1/1 76/4/1 14/63/1
f 6/176/37 93/112/37 106/97/37 75/177/37
f 15/178/2 94/104/2 105/105/2 78/179/2
f 8/180/3 98/161/3 104/93/3 61/181/3
f 22/168/38 97/92/38 103/113/38 65/14/38
f 2/182/39 91/120/39 102/89/39 52/183/39
f 4/15/2 92/116/2 101/101/2 51/184/2
f 19/185/3 96/96/3 100/109/3 46/186/3
f 13/187/40 95/100/40 99/117/40 45/188/40
f 45/188/41 99/117/41 91/120/41 2/182/41
f 65/14/42 103/113/42 92/116/42 4/15/42
f 46/186/3 100/109/3 93/112/3 6/176/3
f 78/179/2 105/105/2 98/108/2 8/189/2
f 51/184/2 101/101/2 94/104/2 15/178/2
f 75/177/43 106/97/43 95/100/43 13/187/43
f 61/181/3 104/93/3 96/96/3 19/185/3
f 52/183/44 102/89/44 97/92/44 22/168/44
f 29/103/2 111/44/2 122/37/2 84/106/2
f 27/111/45 110/36/45 121/45/45 83/98/45
f 32/91/46 114/76/46 120/29/46 70/114/46
f 28/162/3 107/165/3 119/69/3 69/94/3
f 26/115/2 109/32/2 118/41/2 58/102/2
f 25/119/47 108/28/47 117/73/47 57/90/47
f 30/99/48 112/48/48 116/25/48 48/118/48
f 31/95/3 113/72/3 115/33/3 47/110/3
f 57/90/49 117/73/49 114/76/49 32/91/49
f 69/94/3 119/69/3 113/72/3 31/95/3
f 83/98/50 121/45/50 112/48/50 30/99/50
f 58/102/2 118/41/2 111/44/2 29/103/2
f 84/106/2 122/37/2 107/40/2 28/107/2
f 47/110/3 115/33/3 110/36/3 27/111/3
f 70/114/51 120/29/51 109/32/51 26/115/51
f 48/118/52 116/25/52 108/28/52 25/119/52
f 12/35/53 125/148/53 138/133/53 80/46/53
f 18/43/2 127/132/2 137/149/2 77/38/2
f 10/166/3 130/159/3 136/121/3 66/70/3
f 23/75/54 128/128/54 135/141/54 63/30/54
f 9/27/55 123/140/55 134/125/55 56/74/55
f 11/31/2 124/144/2 133/129/2 54/42/2
f 17/47/56 126/136/56 132/137/56 43/26/56
f 24/71/3 129/124/3 131/145/3 44/34/3
f 77/38/2 137/149/2 130/152/2 10/39/2
f 44/34/3 131/145/3 125/148/3 12/35/3
f 63/30/57 135/141/57 124/144/57 11/31/57
f 43/26/58 132/137/58 123/140/58 9/27/58
f 80/46/59 138/133/59 126/136/59 17/47/59
f 54/42/2 133/129/2 127/132/2 18/43/2
f 56/74/60 134/125/60 128/128/60 23/75/60
f 66/70/3 136/121/3 129/124/3 24/71/3
f 38/131/2 144/60/2 154/5/2 86/150/2
f 36/147/61 142/12/61 153/49/61 85/134/61
f 39/127/62 145/80/62 152/17/62 72/142/62
f 33/160/3 139/163/3 151/81/3 71/122/3
f 35/143/2 141/20/2 150/57/2 60/130/2
f 34/139/63 140/24/63 149/77/63 59/126/63
f 40/123/3 146/84/3 148/9/3 50/146/3
f 37/135/64 143/52/64 147/21/64 49/138/64
f 71/122/3 151/81/3 146/84/3 40/123/3
f 59/126/65 149/77/65 145/80/65 39/127/65
f 60/130/2 150/57/2 144/60/2 38/131/2
f 85/134/66 153/49/66 143/52/66 37/135/66
f 49/138/67 147/21/67 140/24/67 34/139/67
f 72/142/68 152/17/68 141/20/68 35/143/68
f 50/146/3 148/9/3 142/12/3 36/147/3
f 86/150/2 154/5/2 139/8/2 33/151/2
